<svg width="95" height="145" viewBox="0 0 95 145" fill="none" xmlns="http://www.w3.org/2000/svg">
<path d="M4.30398 93V49.3636H20.6676C24.0199 49.3636 26.8324 49.9886 29.1051 51.2386C31.392 52.4886 33.1179 54.2074 34.2827 56.3949C35.4616 58.5682 36.0511 61.0398 36.0511 63.8097C36.0511 66.608 35.4616 69.0937 34.2827 71.267C33.1037 73.4403 31.3636 75.152 29.0625 76.402C26.7614 77.6378 23.9276 78.2557 20.5611 78.2557H9.71591V71.7571H19.4957C21.456 71.7571 23.0611 71.4162 24.3111 70.7344C25.5611 70.0526 26.4844 69.1151 27.081 67.9219C27.6918 66.7287 27.9972 65.358 27.9972 63.8097C27.9972 62.2614 27.6918 60.8977 27.081 59.7188C26.4844 58.5398 25.554 57.6236 24.2898 56.9702C23.0398 56.3026 21.4276 55.9688 19.4531 55.9688H12.2088V93H4.30398ZM40.9996 55.9901V49.3636H75.815V55.9901H62.3278V93H54.4869V55.9901H40.9996Z" fill="white"/>
<path d="M86.9432 93.75C84.875 93.75 83.1023 93.0227 81.625 91.5682C80.1477 90.1136 79.4205 88.3409 79.4432 86.25C79.4205 84.2045 80.1477 82.4545 81.625 81C83.1023 79.5455 84.875 78.8182 86.9432 78.8182C88.9432 78.8182 90.6818 79.5455 92.1591 81C93.6591 82.4545 94.4205 84.2045 94.4432 86.25C94.4205 87.6364 94.0568 88.8977 93.3523 90.0341C92.6705 91.1705 91.7614 92.0795 90.625 92.7614C89.5114 93.4205 88.2841 93.75 86.9432 93.75Z" fill="url(#paint0_radial_212_6)"/>
<defs>
<radialGradient id="paint0_radial_212_6" cx="0" cy="0" r="1" gradientUnits="userSpaceOnUse" gradientTransform="translate(83.5 72.5) rotate(90) scale(72.5 10.5)">
<stop stop-color="#4C00FF"/>
<stop offset="0.494792" stop-color="#8800FF"/>
<stop offset="0.963542" stop-color="#2600FF"/>
</radialGradient>
</defs>
</svg>
